<?xml version="1.0" encoding="UTF-8" standalone="no"?>
<svg
   xmlns:dc="http://purl.org/dc/elements/1.1/"
   xmlns:cc="http://creativecommons.org/ns#"
   xmlns:rdf="http://www.w3.org/1999/02/22-rdf-syntax-ns#"
   xmlns:svg="http://www.w3.org/2000/svg"
   xmlns="http://www.w3.org/2000/svg"
   xmlns:sodipodi="http://sodipodi.sourceforge.net/DTD/sodipodi-0.dtd"
   xmlns:inkscape="http://www.inkscape.org/namespaces/inkscape"
   fill="none"
   height="24"
   stroke="#000"
   stroke-linecap="round"
   stroke-linejoin="round"
   stroke-width="2"
   viewBox="0 0 24 24"
   width="24"
   version="1.1"
   id="svg3763"
   sodipodi:docname="round_triangle.svg"
   inkscape:version="0.92.4 5da689c313, 2019-01-14">
  <metadata
     id="metadata3769">
    <rdf:RDF>
      <cc:Work
         rdf:about="">
        <dc:format>image/svg+xml</dc:format>
        <dc:type
           rdf:resource="http://purl.org/dc/dcmitype/StillImage" />
        <dc:title></dc:title>
      </cc:Work>
    </rdf:RDF>
  </metadata>
  <defs
     id="defs3767" />
  <sodipodi:namedview
     pagecolor="#ffffff"
     bordercolor="#666666"
     borderopacity="1"
     objecttolerance="10"
     gridtolerance="10"
     guidetolerance="10"
     inkscape:pageopacity="0"
     inkscape:pageshadow="2"
     inkscape:window-width="3000"
     inkscape:window-height="1892"
     id="namedview3765"
     showgrid="false"
     inkscape:zoom="65.25"
     inkscape:cx="12"
     inkscape:cy="12"
     inkscape:window-x="0"
     inkscape:window-y="50"
     inkscape:window-maximized="1"
     inkscape:current-layer="svg3763" />
  <path
     d="M10.29 3.86L1.82 18a2 2 0 0 0 1.71 3h16.94a2 2 0 0 0 1.71-3L13.71 3.86a2 2 0 0 0-3.42 0z"
     id="path3761" />
  <path
     style="stroke-width:0.03065134;fill:#000000"
     d="M 3.3701149,19.977631 C 3.1920549,19.93956 2.9928518,19.835278 2.8668523,19.714175 2.6692645,19.524265 2.5662149,19.281157 2.5657438,19.003819 2.56545,18.83089 2.5862669,18.735823 2.6573563,18.585441 2.6892335,18.518008 4.621711,15.280077 6.9517507,11.390038 11.02601,4.5879968 11.192549,4.3128252 11.302139,4.2018789 c 0.129618,-0.1312211 0.297998,-0.2289321 0.460528,-0.2672446 0.125899,-0.029677 0.346285,-0.02952 0.473348,3.385e-4 0.221086,0.051952 0.452146,0.2125439 0.580752,0.4036348 0.0318,0.047252 1.963558,3.2677311 4.292792,7.1566194 2.536744,4.235346 4.248853,7.108947 4.269587,7.16607 0.07797,0.214795 0.07781,0.46152 -4.44e-4,0.677085 -0.109851,0.302637 -0.389191,0.552872 -0.698247,0.625495 -0.08876,0.02086 -1.03565,0.02324 -8.689655,0.02186 -4.7245211,-8.58e-4 -8.6038314,-0.0045 -8.6206897,-0.0081 z"
     id="path3771"
     inkscape:connector-curvature="0" />
  <path
     style="fill:#000000;stroke-width:0.03065134"
     d="M 3.2759297,21.978679 C 2.445571,21.904578 1.6484149,21.454486 1.1472135,20.77676 0.83147073,20.349813 0.62843935,19.82145 0.57396882,19.284966 0.51955254,18.749016 0.6289125,18.159134 0.87301594,17.67192 0.94067451,17.536878 9.4104818,3.3876936 9.5216829,3.2239427 9.9304699,2.6219772 10.549909,2.1847032 11.252434,2.0021718 c 0.275996,-0.07171 0.433659,-0.090177 0.761359,-0.089181 0.332266,0.00101 0.521531,0.026001 0.796935,0.1052277 0.633849,0.182341 1.192651,0.5658231 1.578917,1.0835427 0.07805,0.1046154 1.649391,2.7136466 4.347412,7.2183908 2.323849,3.880009 4.260911,7.11663 4.304581,7.192492 0.419122,0.728059 0.51134,1.613376 0.250989,2.409554 -0.375097,1.147076 -1.39263,1.953344 -2.596842,2.057673 -0.21558,0.01868 -17.210238,0.01751 -17.4198553,-0.0012 z M 20.641284,19.989758 c 0.04126,-0.0089 -13.9543053,-0.0072 -16.252012,0.0019 -0.5436781,0.0022 2.8804598,0.0048 7.609195,0.0058 4.728736,10e-4 8.618003,-0.0025 8.642817,-0.0078 z m -17.4167629,-0.048 c -0.012644,-0.0082 -0.029885,-0.01486 -0.038314,-0.01486 -0.00843,0 -0.00498,0.0067 0.00766,0.01486 0.012644,0.0082 0.029885,0.01486 0.038314,0.01486 0.00843,0 0.00498,-0.0067 -0.00766,-0.01486 z m -0.06258,-0.02104 c -0.015647,-0.014 -0.1060026,-0.0556 -0.1060026,-0.04881 0,0.0095 0.079457,0.05308 0.09834,0.05391 0.00773,3.37e-4 0.011175,-0.002 0.00766,-0.0051 z m 17.8097069,-0.06433 c 0,-0.0042 -0.01379,-2.76e-4 -0.03065,0.0087 -0.01686,0.009 -0.03065,0.01985 -0.03065,0.02407 0,0.0042 0.01379,2.75e-4 0.03065,-0.0087 0.01686,-0.009 0.03065,-0.01985 0.03065,-0.02407 z M 3.0106437,19.83751 C 2.9899457,19.8232 2.9347737,19.78069 2.8880383,19.74305 2.8413033,19.7054 2.8126413,19.68657 2.8243453,19.7012 c 0.025068,0.03133 0.1994598,0.164301 0.2139551,0.163132 0.00549,-4.45e-4 -0.00696,-0.01251 -0.027656,-0.02682 z M 21.096731,19.76875 c 0.03929,-0.03119 0.09377,-0.08606 0.121067,-0.121928 0.04327,-0.05687 0.03903,-0.05433 -0.03313,0.01988 -0.04551,0.0468 -0.1072,0.105425 -0.137082,0.130268 -0.0748,0.06219 -0.03847,0.04133 0.04914,-0.02822 z M 2.7954023,19.645287 c 0,-0.0029 -0.015517,-0.01843 -0.034483,-0.03448 l -0.034483,-0.0292 0.029195,0.03448 c 0.027436,0.03241 0.03977,0.04146 0.039771,0.0292 z M 21.324138,19.497318 c 0.009,-0.01686 0.01296,-0.03065 0.0087,-0.03065 -0.0042,0 -0.01505,0.01379 -0.02407,0.03065 -0.009,0.01686 -0.01296,0.03065 -0.0087,0.03065 0.0042,0 0.01505,-0.01379 0.02407,-0.03065 z m 0.102423,-0.278736 c -0.0049,-0.01223 -0.0085,-0.0086 -0.0093,0.0093 -6.59e-4,0.01616 0.003,0.02521 0.0081,0.02012 0.0051,-0.0051 0.0056,-0.01831 0.0012,-0.02937 z M 2.5759864,19.203257 c -0.00489,-0.01223 -0.00852,-0.0086 -0.00926,0.0093 -6.651e-4,0.01615 0.00296,0.02521 0.00805,0.02012 0.00509,-0.0051 0.00564,-0.01831 0.00121,-0.02937 z M 21.441568,19.12567 c -0.0043,-0.01054 -0.0077,-0.0019 -0.0077,0.01916 0,0.02107 0.0035,0.02969 0.0077,0.01916 0.0043,-0.01054 0.0043,-0.02778 0,-0.03832 z M 2.561189,19.056915 c -0.00352,-0.0233 -0.0065,-0.0079 -0.00661,0.03427 -1.073e-4,0.04215 0.00277,0.06121 0.0064,0.04236 0.00364,-0.01885 0.00373,-0.05333 2.084e-4,-0.07663 z m -1.824e-4,-0.191781 c -0.00365,-0.01897 -0.00664,-0.0034 -0.00664,0.03448 0,0.03793 0.00299,0.05345 0.00664,0.03448 0.00365,-0.01897 0.00365,-0.05 0,-0.06897 z m 18.8805614,-0.03065 c -0.0043,-0.01054 -0.0077,-0.0019 -0.0077,0.01916 0,0.02107 0.0035,0.02969 0.0077,0.01916 0.0043,-0.01054 0.0043,-0.02778 0,-0.03831 z M 2.5759856,18.774138 c -0.00489,-0.01223 -0.00852,-0.0086 -0.00926,0.0093 -6.651e-4,0.01615 0.00296,0.02521 0.00805,0.02012 0.00509,-0.0051 0.00564,-0.01831 0.00121,-0.02937 z m 18.8505754,-0.01533 c -0.0049,-0.01222 -0.0085,-0.0086 -0.0093,0.0093 -6.59e-4,0.01616 0.003,0.02521 0.0081,0.02012 0.0051,-0.0051 0.0056,-0.01831 0.0012,-0.02938 z M 2.9121749,18.136156 c 0.24987,-0.421026 0.2466194,-0.415335 0.2248341,-0.393627 -0.026815,0.02672 -0.490499,0.809624 -0.5162167,0.871603 -0.038414,0.09258 -0.027901,0.08748 0.021735,-0.01054 0.024824,-0.04902 0.1461652,-0.259365 0.269648,-0.467433 z m 18.4446571,0.430301 c -0.04594,-0.09004 -1.336545,-2.246758 -1.355134,-2.264541 -0.0218,-0.02085 -0.02769,-0.03093 0.60511,1.034482 0.307897,0.518391 0.607146,1.023165 0.664999,1.121722 0.101425,0.172784 0.148512,0.23278 0.08503,0.108337 z M 3.1785441,17.688889 c 0.00902,-0.01686 0.012956,-0.03065 0.00874,-0.03065 -0.00421,0 -0.015045,0.01379 -0.024067,0.03065 -0.00902,0.01686 -0.012956,0.03065 -0.00874,0.03065 0.00421,0 0.015045,-0.01379 0.024067,-0.03065 z m 0.045977,-0.07663 c 0.00902,-0.01686 0.012956,-0.03065 0.00874,-0.03065 -0.00421,0 -0.015045,0.01379 -0.024067,0.03065 -0.00902,0.01686 -0.012956,0.03065 -0.00874,0.03065 0.00421,0 0.015045,-0.01379 0.024067,-0.03065 z m 0.075494,-0.130269 c 0.018932,-0.03372 0.022959,-0.04751 0.00895,-0.03065 -0.028458,0.03424 -0.080943,0.13133 -0.057994,0.10728 0.00804,-0.0084 0.030114,-0.04291 0.049046,-0.07663 z m 0.1546613,-0.256705 c 0.1337663,-0.225243 0.1256696,-0.210728 0.1175488,-0.210728 -0.00363,0 -0.056767,0.08448 -0.1180892,0.18774 -0.1337662,0.225243 -0.1256695,0.210728 -0.1175488,0.210728 0.00363,0 0.056767,-0.08448 0.1180892,-0.18774 z M 3.6076629,16.96858 c 0.00902,-0.01686 0.012956,-0.03065 0.00874,-0.03065 -0.00421,0 -0.015045,0.01379 -0.024067,0.03065 -0.00902,0.01686 -0.012956,0.03065 -0.00874,0.03065 0.00421,0 0.015045,-0.01379 0.024067,-0.03065 z m 0.045977,-0.07663 c 0.00902,-0.01686 0.012956,-0.03065 0.00874,-0.03065 -0.00421,0 -0.015045,0.01379 -0.024067,0.03065 -0.00902,0.01686 -0.012956,0.03065 -0.00874,0.03065 0.00421,0 0.015045,-0.01379 0.024067,-0.03065 z m 0.091954,-0.153257 c 0.00902,-0.01686 0.012956,-0.03065 0.00874,-0.03065 -0.00421,0 -0.015045,0.01379 -0.024067,0.03065 -0.00902,0.01686 -0.012956,0.03065 -0.00874,0.03065 0.00421,0 0.015045,-0.01379 0.024067,-0.03065 z m 0.045977,-0.07663 c 0.00902,-0.01686 0.012956,-0.03065 0.00874,-0.03065 -0.00421,0 -0.015045,0.01379 -0.024067,0.03065 -0.00902,0.01686 -0.012956,0.03065 -0.00874,0.03065 0.00421,0 0.015045,-0.01379 0.024067,-0.03065 z m 0.045977,-0.07663 c 0.00902,-0.01686 0.012956,-0.03065 0.00874,-0.03065 -0.00421,0 -0.015045,0.01379 -0.024067,0.03065 -0.00902,0.01686 -0.012956,0.03065 -0.00874,0.03065 0.00421,0 0.015045,-0.01379 0.024067,-0.03065 z m 0.045977,-0.07663 c 0.00902,-0.01686 0.012956,-0.03065 0.00874,-0.03065 -0.00421,0 -0.015045,0.01379 -0.024067,0.03065 -0.00902,0.01686 -0.012956,0.03065 -0.00874,0.03065 0.00421,0 0.015045,-0.01379 0.024067,-0.03065 z M 19.975479,16.248276 c -0.009,-0.01686 -0.01985,-0.03065 -0.02407,-0.03065 -0.0042,0 -2.75e-4,0.01379 0.0087,0.03065 0.009,0.01686 0.01985,0.03065 0.02407,0.03065 0.0042,0 2.76e-4,-0.01379 -0.0087,-0.03065 z m -0.04598,-0.07663 c -0.009,-0.01686 -0.01985,-0.03065 -0.02407,-0.03065 -0.0042,0 -2.75e-4,0.01379 0.0087,0.03065 0.009,0.01686 0.01985,0.03065 0.02407,0.03065 0.0042,0 2.76e-4,-0.01379 -0.0087,-0.03065 z m -0.04598,-0.07663 c -0.009,-0.01686 -0.01985,-0.03065 -0.02407,-0.03065 -0.0042,0 -2.75e-4,0.01379 0.0087,0.03065 0.009,0.01686 0.01985,0.03065 0.02407,0.03065 0.0042,0 2.76e-4,-0.01379 -0.0087,-0.03065 z m -0.04598,-0.07663 c -0.009,-0.01686 -0.01985,-0.03065 -0.02407,-0.03065 -0.0042,0 -2.75e-4,0.01379 0.0087,0.03065 0.009,0.01686 0.01985,0.03065 0.02407,0.03065 0.0042,0 2.76e-4,-0.01379 -0.0087,-0.03065 z m -0.04598,-0.07663 c -0.009,-0.01686 -0.01985,-0.03065 -0.02407,-0.03065 -0.0042,0 -2.75e-4,0.01379 0.0087,0.03065 0.009,0.01686 0.01985,0.03065 0.02407,0.03065 0.0042,0 2.76e-4,-0.01379 -0.0087,-0.03065 z m -0.04598,-0.07663 c -0.009,-0.01686 -0.01985,-0.03065 -0.02407,-0.03065 -0.0042,0 -2.75e-4,0.01379 0.0087,0.03065 0.009,0.01686 0.01985,0.03065 0.02407,0.03065 0.0042,0 2.75e-4,-0.01379 -0.0087,-0.03065 z m -0.04598,-0.07663 c -0.009,-0.01686 -0.01985,-0.03065 -0.02407,-0.03065 -0.0042,0 -2.75e-4,0.01379 0.0087,0.03065 0.009,0.01686 0.01985,0.03065 0.02407,0.03065 0.0042,0 2.75e-4,-0.01379 -0.0087,-0.03065 z m -0.04598,-0.07663 c -0.009,-0.01686 -0.01985,-0.03065 -0.02407,-0.03065 -0.0042,0 -2.75e-4,0.01379 0.0087,0.03065 0.009,0.01686 0.01985,0.03065 0.02407,0.03065 0.0042,0 2.75e-4,-0.01379 -0.0087,-0.03065 z m -0.04598,-0.07663 c -0.009,-0.01686 -0.01985,-0.03065 -0.02407,-0.03065 -0.0042,0 -2.75e-4,0.01379 0.0087,0.03065 0.009,0.01686 0.01985,0.03065 0.02407,0.03065 0.0042,0 2.75e-4,-0.01379 -0.0087,-0.03065 z m -0.04598,-0.07663 c -0.009,-0.01686 -0.01985,-0.03065 -0.02407,-0.03065 -0.0042,0 -2.75e-4,0.01379 0.0087,0.03065 0.009,0.01686 0.01985,0.03065 0.02407,0.03065 0.0042,0 2.75e-4,-0.01379 -0.0087,-0.03065 z m -0.04598,-0.07663 c -0.009,-0.01686 -0.01985,-0.03065 -0.02407,-0.03065 -0.0042,0 -2.75e-4,0.01379 0.0087,0.03065 0.009,0.01686 0.01985,0.03065 0.02407,0.03065 0.0042,0 2.75e-4,-0.01379 -0.0087,-0.03065 z M 10.642146,5.2291188 c 0.009,-0.016858 0.01295,-0.030651 0.0087,-0.030651 -0.0042,0 -0.01505,0.013793 -0.02407,0.030651 -0.009,0.016858 -0.01296,0.030651 -0.0087,0.030651 0.0042,0 0.01504,-0.013793 0.02407,-0.030651 z m 0.04598,-0.076628 c 0.009,-0.016858 0.01296,-0.030651 0.0087,-0.030651 -0.0042,0 -0.01504,0.013793 -0.02407,0.030651 -0.009,0.016858 -0.01296,0.030651 -0.0087,0.030651 0.0042,0 0.01504,-0.013793 0.02407,-0.030651 z m 0.04598,-0.076628 c 0.009,-0.016858 0.01295,-0.030651 0.0087,-0.030651 -0.0042,0 -0.01505,0.013793 -0.02407,0.030651 -0.009,0.016858 -0.01296,0.030651 -0.0087,0.030651 0.0042,0 0.01504,-0.013793 0.02407,-0.030651 z m 2.51341,-0.061303 c -0.009,-0.016858 -0.01985,-0.030651 -0.02407,-0.030651 -0.0042,0 -2.81e-4,0.013793 0.0087,0.030651 0.009,0.016858 0.01985,0.030651 0.02407,0.030651 0.0042,0 2.8e-4,-0.013793 -0.0087,-0.030651 z M 10.964004,4.7003831 c 0.287613,-0.4677607 0.315665,-0.5045721 0.482739,-0.6334691 0.02529,-0.019509 0.03563,-0.030419 0.02299,-0.024244 -0.04775,0.023319 -0.178582,0.1374381 -0.238183,0.2077508 -0.04678,0.055186 -0.432545,0.6766028 -0.479122,0.7718011 -0.03209,0.065595 0.05213,-0.062528 0.211577,-0.3218391 z m 2.237529,0.2375479 c -0.009,-0.016858 -0.01985,-0.030651 -0.02407,-0.030651 -0.0042,0 -2.81e-4,0.013793 0.0087,0.030651 0.009,0.016858 0.01985,0.030651 0.02407,0.030651 0.0042,0 2.8e-4,-0.013793 -0.0087,-0.030651 z m -0.04908,-0.08046 C 13.140387,4.8385057 13.058559,4.7028109 12.970619,4.555927 12.852067,4.3579137 12.784626,4.2628158 12.70977,4.188111 12.616246,4.0947746 12.485234,4.0028492 12.412261,3.9793617 c -0.01686,-0.00543 0.0091,0.013205 0.05764,0.041402 0.221695,0.1287322 0.285872,0.2020815 0.524237,0.59916 0.08981,0.1496168 0.167117,0.2720306 0.171784,0.2720306 0.0047,0 -0.0014,-0.015517 -0.01346,-0.034483 z M 11.569749,3.990699 c -0.0047,-0.00472 -0.01708,-9.8e-6 -0.02748,0.010464 -0.01502,0.015136 -0.01326,0.016896 0.0086,0.00858 0.01511,-0.00576 0.02362,-0.014325 0.0189,-0.019043 z M 12.23186,3.917177 c -0.0051,-0.00509 -0.01831,-0.00564 -0.02938,-0.00121 -0.01222,0.00489 -0.0086,0.00852 0.0093,0.00926 0.01615,6.652e-4 0.02521,-0.00296 0.02012,-0.00805 z m -0.14471,-0.017345 c -0.04395,-0.00309 -0.119808,-0.00311 -0.168583,-6.13e-5 -0.04877,0.00305 -0.01282,0.00557 0.0799,0.00561 0.09272,3.06e-5 0.132628,-0.00246 0.08868,-0.00555 z"
     id="path3773"
     inkscape:connector-curvature="0" />
</svg>
